<svg xmlns="http://www.w3.org/2000/svg" xmlns:xlink="http://www.w3.org/1999/xlink" width="216" height="32" viewBox="0 0 216 32">
    <defs>
        <path id="a" d="M48.582 1.973c6.663 0 11.05 3.542 11.05 9.404 0 6.411-5.314 9.7-11.599 9.7h-7.17v10.417h-3.33V1.973h11.049zM48.16 18.04c4.893 0 8.098-2.614 8.098-6.536 0-4.26-3.164-6.453-7.928-6.453h-7.466v12.99h7.296zM78.44 1.973c6.663 0 11.049 3.542 11.049 9.404 0 6.411-5.314 9.7-11.598 9.7h-7.17v10.417H67.39V1.973h11.05zm-.422 16.067c4.891 0 8.097-2.614 8.097-6.536 0-4.26-3.163-6.453-7.93-6.453h-7.464v12.99h7.297zm33.02-16.574c8.983 0 15.014 7.043 15.014 15.225 0 8.182-6.115 15.309-15.099 15.309-8.982 0-15.013-7.042-15.013-15.225 0-8.182 6.115-15.309 15.098-15.309zm0 27.456c6.748 0 11.555-5.398 11.555-12.147 0-6.748-4.892-12.23-11.64-12.23-6.747 0-11.555 5.398-11.555 12.146 0 6.747 4.892 12.231 11.64 12.231zm34.116-13.792c6.58 1.435 9.616 3.839 9.616 8.394 0 5.102-4.218 8.392-10.08 8.392-4.68 0-8.52-1.56-12.061-4.724l2.066-2.445c3.079 2.783 6.031 4.175 10.122 4.175 3.964 0 6.58-2.067 6.58-5.061 0-2.783-1.477-4.344-7.678-5.651-6.789-1.477-9.91-3.67-9.91-8.562 0-4.723 4.091-8.097 9.7-8.097 4.302 0 7.381 1.223 10.375 3.626l-1.94 2.573c-2.74-2.235-5.482-3.205-8.519-3.205-3.838 0-6.284 2.11-6.284 4.808 0 2.826 1.519 4.386 8.013 5.777zm15.35-10.079V1.973H183.7V5.05h-9.912v26.443h-3.373V5.051h-9.911zM26.444 31.494l-3.704-7.803H7.147l-3.73 7.803H0L15.014 0l15.014 31.494h-3.585zM8.578 20.698h12.74l-6.347-13.37-6.393 13.37zm203.165 10.796l-3.704-7.803h-15.593l-3.73 7.803H185.3L200.314 0l15.014 31.494h-3.584zm-17.865-10.796h12.74l-6.347-13.37-6.393 13.37z"/>
    </defs>
    <g fill="none" fill-rule="evenodd">
        <mask id="b" fill="#fff">
            <use xlink:href="#a"/>
        </mask>
        <use fill="#231F20" xlink:href="#a"/>
        <g fill="#1A2F4F" mask="url(#b)">
            <path d="M0 0h215v32H0z"/>
        </g>
    </g>
</svg>
